<svg width="466" height="304" viewBox="0 0 466 304" fill="none" xmlns="http://www.w3.org/2000/svg">
<path d="M438.22 258.725C421.74 286.955 390.36 305.525 359.97 303.865C321.75 301.795 279.22 261.545 248.16 232.155C242.81 227.085 237.76 222.295 233.08 218.045C204.44 191.945 171.96 162.375 126.81 156.875C122.19 156.315 117.62 156.035 113.05 156.035C103.65 156.035 94.2202 157.225 84.1902 159.675L63.7002 112.355C69.1102 110.395 89.0402 106.535 92.9202 106.055C164.14 97.5752 218.53 136.375 257.96 171.125C266.91 179.015 275.95 187.585 284.68 195.845C304 214.175 324 233.115 345.89 247.655C367.52 262.045 406.68 281.195 438.22 258.725Z" fill="#5D4739"/>
<path d="M454.16 223.895C450.97 232.675 446.31 238.945 438.05 245.485C417.41 261.875 393.15 257.925 375.11 250.725C402.98 238.715 411.52 193.445 413.93 173.875C418.5 136.925 412.08 74.5553 375.63 54.1553C362.43 46.7553 347.27 46.1953 332.3 52.4053C345.33 34.5053 364.18 15.0753 385.79 12.3753C398.88 10.7553 411.76 15.5453 424.09 26.5653C445.42 45.6053 459.74 78.7553 464.4 119.865C468.48 156.085 464.66 194.975 454.16 223.895Z" fill="#5D4739"/>
<path d="M198.17 55.7754L153.29 97.6854C140.46 94.2554 127 92.5554 113.5 92.5554C101.75 92.5554 89.9496 93.8454 78.5196 96.4554L122.67 54.0953H17.0996V2.48535H174.7L198.17 55.7754Z" fill="#5D4739"/>
<path d="M379.06 1.93532C350.5 8.85532 332 32.4353 316.23 57.1953C300.57 81.7853 287.44 108.285 274.71 133.915C270.65 142.115 266.45 150.565 262.22 158.895C247.21 146.325 233.02 135.705 218.91 126.495C219.34 125.395 220.25 123.325 222.08 119.485L222.45 118.735C237.94 85.9353 259.89 45.2753 292.42 22.0453C318.77 3.21531 349.21 -3.77468 379.06 1.93532Z" fill="#5D4739"/>
<path d="M137.09 249.555C119.06 272.465 93.24 298.475 63.8 293.315C54.98 291.785 43.98 286.005 34.38 277.855C18.18 264.075 6.62 243.385 0 216.365L50.88 205.085C55.86 231.135 75.64 250.915 100.72 254.585C115.91 256.805 124.68 254.565 137.09 249.555Z" fill="#5D4739"/>
<path d="M225.62 228.355C225.62 228.375 225.6 228.395 225.6 228.415C223.08 234.325 215.7 244.895 212.14 249.985C197.39 271.075 180.31 285.575 159.92 294.285C139.02 303.215 114.2 305.995 87.6504 302.415C97.4204 299.615 103.87 296.745 113.55 289.685C146.59 265.575 167.66 226.905 184.57 195.215C196.32 203.305 207.35 212.725 218.02 221.855C220.55 224.045 223.08 226.205 225.62 228.355Z" fill="#5D4739"/>
</svg>
